PathFileType	4	(X/Y/Z)	C:\Users\ebm\Documents\Erivelton\Erivelton2\wc7.trc
DataRate	CameraRate	NumFrames	NumMarkers	Units	OrigDataRate	OrigDataStartFrame	OrigNumFrames
150.00	150.00	      10	28	mm	150.00	844	      1125
Frame#	Time	IJ			PX			C7			T8			RAC			RAS			RPS			RAI			RPI			RLE			RME			RRS			RUS			R3M			R5M			LAC			LAS			LPS			LAI			LPI			LLE			LME			LRS			LUS			L3M			L5M			RW			LW			V_mid_elbow_r			V_mid_elbow_l			V_mid_wrist_r			V_mid_wrist_l			V_mid_trunk_low			V_mid_trunk_upp			
		X1	Y1	Z1	X2	Y2	Z2	X3	Y3	Z3	X4	Y4	Z4	X5	Y5	Z5	X6	Y6	Z6	X7	Y7	Z7	X8	Y8	Z8	X9	Y9	Z9	X10	Y10	Z10	X11	Y11	Z11	X12	Y12	Z12	X13	Y13	Z13	X14	Y14	Z14	X15	Y15	Z15	X16	Y16	Z16	X17	Y17	Z17	X18	Y18	Z18	X19	Y19	Z19	X20	Y20	Z20	X21	Y21	Z21	X22	Y22	Z22	X23	Y23	Z23	X24	Y24	Z24	X25	Y25	Z25	X26	Y26	Z26	X27	Y27	Z27	X28	Y28	Z28	

844	5.620	2925.18994	990.66687	60.02828	2883.58862	829.17554	76.65040	2827.17017	1123.79211	60.94987	2709.03613	1006.50952	72.14750	2900.59546	1032.47400	264.74670	2913.28589	844.47504	318.67227	2869.58496	853.99554	340.13260	2917.19189	769.79578	342.47256	2869.59644	777.08057	365.09399	2875.71851	712.26801	374.58942	2836.90527	690.99854	309.47104	3015.14526	470.57733	381.11450	2967.89575	474.63806	417.59009	2997.71729	389.72211	422.97983	2958.70557	396.87183	429.31616	2865.05347	1035.55518	-125.98122	2851.37280	877.00739	-206.35652	2803.28589	874.21277	-202.25996	2860.28735	800.75159	-232.44902	2805.86255	794.57849	-228.91843	2853.19458	715.28943	-259.77322	2802.97827	691.90289	-204.94919	3021.18774	500.15161	-222.13567	2974.48193	480.03522	-261.51328	3013.47119	406.50122	-254.99826	2973.56152	417.59259	-263.12634	2734.80664	305.62366	384.88077	2762.15015	299.23849	-244.35295	
845	5.627	2934.54175	990.60461	60.33218	2893.53174	828.99054	77.17405	2836.44604	1123.53662	61.26416	2718.34985	1005.85864	72.41692	2910.12183	1032.43970	264.95728	2925.23535	844.24567	317.29993	2881.57739	853.34302	339.12863	2929.82813	769.47711	340.24606	2882.30371	776.17657	363.35226	2888.31104	711.99860	372.63995	2850.77637	690.36389	306.62253	3028.04370	470.26947	381.83768	2981.00098	475.40927	418.39767	3010.44946	389.80731	424.11813	2971.84399	397.66797	431.33759	2874.78076	1035.37915	-125.52291	2864.08813	876.02643	-204.78204	2815.89575	872.60339	-201.10367	2874.17627	799.47797	-229.75465	2819.76880	792.75940	-226.74341	2867.73267	713.95752	-256.46399	2817.74976	690.50092	-200.98494	3034.37793	497.38083	-221.77594	2988.70654	478.46249	-262.05948	3025.81982	404.45642	-255.12961	2987.47192	416.44754	-263.80176	2744.91284	305.25375	385.10599	2772.04858	299.30408	-243.96481	
846	5.633	2944.12524	990.62817	60.75549	2903.53125	828.88123	77.28307	2845.53296	1123.24878	61.46190	2727.84229	1005.27966	72.72019	2919.66675	1032.64539	265.14435	2936.27368	844.34125	316.24893	2892.61035	853.04333	338.33990	2941.49951	769.46082	338.92804	2894.07056	775.72833	362.05869	2899.93750	711.93628	371.12247	2863.52686	690.19189	304.59296	3040.62988	471.07507	382.62704	2993.72217	477.21552	418.93903	3022.89624	390.67728	425.24561	2985.34106	399.27365	433.43182	2884.62061	1035.32703	-125.13557	2876.31909	875.25037	-203.32353	2828.13989	871.44702	-200.12540	2887.40991	798.47791	-227.21500	2832.99634	791.29309	-224.77660	2881.25317	713.17181	-253.61906	2831.95313	689.50189	-197.40790	3047.42383	495.49295	-220.81769	3002.47852	477.91568	-262.37918	3037.98853	403.26669	-255.46672	2999.78369	415.95013	-264.79056	2754.90161	305.18088	385.49548	2781.96411	299.21802	-243.52911	
847	5.640	2953.80664	990.82825	60.90573	2913.50098	828.64740	77.44211	2854.75122	1123.11414	61.52326	2737.36523	1004.84808	73.00043	2929.08081	1033.06873	265.33475	2946.60449	844.80103	316.03354	2902.85132	853.03070	337.92328	2952.30103	769.76257	338.13998	2904.74609	775.68298	361.33771	2910.60889	712.16315	370.20163	2875.65649	690.29797	302.95740	3052.99365	472.70544	383.40573	3006.04248	479.50711	419.34872	3034.43506	391.35153	424.09137	2999.04688	401.51666	434.79163	2894.47510	1035.49915	-124.79233	2888.14087	874.78168	-201.95015	2840.00073	870.73663	-199.14587	2899.86182	797.91168	-225.01181	2845.66772	790.37830	-222.96933	2894.03125	712.83972	-251.19656	2845.27563	688.92590	-194.30586	3059.78906	494.22946	-219.45317	3015.31348	478.02756	-262.48770	3049.91602	402.99704	-256.30325	3012.46484	416.12769	-266.33167	2764.85132	305.09674	385.91763	2791.75269	299.23386	-243.12144	
848	5.647	2963.24829	990.73145	61.41009	2923.59570	828.63092	77.53667	2863.93066	1123.04199	61.55541	2747.07202	1004.53741	73.23207	2938.28027	1033.68054	265.57849	2956.28296	845.35303	316.04581	2912.41162	853.31702	337.71857	2962.22290	770.33783	338.16666	2914.64526	776.01306	361.13956	2920.64429	712.46405	370.11465	2886.52759	690.72101	302.37656	3065.08374	474.69690	383.95990	3017.81738	481.72656	419.66315	3048.54883	394.43069	427.22833	3012.38672	404.14471	436.06223	2904.28955	1035.73352	-124.44756	2899.33301	874.65839	-200.74310	2851.23120	870.32397	-198.24251	2911.75537	797.61560	-223.16425	2857.56763	789.86548	-221.51836	2906.01294	712.81641	-249.27452	2857.67749	688.69769	-191.93855	3072.02075	493.94278	-218.30095	3027.88721	478.74817	-262.41116	3061.88623	403.29977	-256.64670	3024.62744	416.93958	-266.42709	2775.79126	304.67764	386.29413	2801.61182	299.31619	-242.70618	
849	5.653	2973.10254	991.19086	61.64830	2933.52856	828.53583	77.61218	2873.28491	1123.06360	61.55678	2756.70557	1004.38654	73.40569	2947.55054	1034.51233	265.82602	2965.48853	846.17590	316.60126	2921.35156	853.96967	337.91574	2971.50708	771.22101	338.75958	2923.83789	776.69629	361.51501	2930.09668	713.23773	370.49808	2896.62183	691.23969	302.64478	3076.75342	477.18271	384.49673	3029.04077	483.84067	419.95682	3061.32715	396.77646	427.43561	3024.56421	407.02304	436.66254	2914.29297	1036.15979	-124.19590	2910.24487	874.79694	-199.68336	2862.07715	870.31671	-197.35745	2922.83203	797.75275	-221.85742	2868.65698	789.79749	-220.35994	2917.28418	713.07245	-247.87981	2869.21460	688.90875	-190.19705	3083.55981	494.21878	-217.26645	3040.06030	479.74078	-262.11063	3074.21826	404.17511	-256.47562	3037.00488	418.27386	-266.97415	2785.21509	304.70645	386.91635	2811.55200	299.32034	-242.14172	
850	5.660	2982.92725	991.63354	62.06466	2943.57520	828.81104	77.99619	2882.63843	1123.29602	61.51804	2766.44604	1004.45898	73.41849	2956.70996	1035.47656	266.05865	2974.11060	847.14380	317.40866	2929.76660	854.94696	338.43066	2980.33154	772.28424	339.84003	2931.64233	777.21185	361.89584	2938.89941	714.21246	371.44141	2905.71558	692.06677	303.73166	3088.18604	479.91968	384.99536	3039.97778	485.84586	420.24634	3074.11304	399.46194	427.34357	3037.72925	409.32840	436.49808	2924.34424	1036.79883	-124.03106	2920.52856	875.25342	-199.09331	2872.49731	870.73792	-196.65205	2933.34082	798.17224	-221.01877	2879.12305	790.12054	-219.54871	2928.43652	713.68011	-246.91924	2879.89404	689.54089	-189.24268	3094.55371	495.23578	-216.36201	3051.74878	481.09439	-261.51089	3086.15161	405.65073	-256.10117	3049.19043	419.74335	-267.40042	2795.38208	304.52048	387.30179	2821.50513	299.51599	-241.69757	
851	5.667	2992.43652	991.85895	62.29173	2953.70947	829.16821	78.20922	2892.01221	1123.57678	61.48006	2776.21997	1004.57391	73.38709	2965.84033	1036.52368	266.32187	2982.32910	848.43787	318.75064	2937.28174	856.31006	339.71628	2988.59399	773.68317	341.59720	2939.54297	778.46161	363.04932	2947.22852	715.39868	372.91415	2914.30713	692.98822	305.26428	3099.29028	482.98453	385.61395	3050.45923	487.88885	420.34256	3086.39453	402.31824	427.23666	3049.65186	411.83261	436.24664	2934.55249	1037.52856	-123.80891	2930.57715	875.95874	-198.55132	2882.46558	871.45239	-196.12012	2943.20313	798.86700	-220.57709	2889.11523	790.85297	-219.11087	2938.37231	714.39197	-246.46477	2889.97583	690.37573	-188.96654	3105.58008	496.86270	-215.28098	3062.92358	482.66870	-260.84372	3097.97485	407.59888	-255.34677	3061.05835	421.80838	-266.93915	2805.79517	304.43289	387.79056	2831.55542	299.56357	-241.21370	
852	5.673	3002.54443	992.80096	62.36423	2963.68311	829.72693	78.46147	2901.38037	1124.11316	61.40046	2786.14478	1004.84833	73.26003	2975.06348	1037.76550	266.46973	2990.46875	849.95135	320.25006	2945.11963	857.76923	340.77539	2996.53687	775.31110	343.62573	2947.36621	780.25946	364.70319	2955.07983	716.80768	374.68796	2921.90137	694.32440	307.51422	3109.82129	486.14584	386.12454	3061.15503	489.98935	420.98224	3098.22144	404.89508	426.67090	3061.29028	413.90289	435.54068	2944.62720	1038.34094	-123.61847	2940.11597	876.82007	-198.34851	2891.99341	872.38452	-195.82883	2952.64600	799.80811	-220.56439	2898.45215	791.84265	-219.00262	2947.49854	715.17261	-246.50789	2899.22461	691.38928	-189.19043	3115.88379	498.99197	-214.15883	3073.72534	484.66544	-259.94168	3109.59302	410.06845	-254.14061	3072.88110	424.10107	-266.05890	2816.09741	304.32239	388.30283	2841.50171	299.72345	-240.72005	
853	5.680	3011.92822	993.36224	62.97943	2973.58691	830.35034	78.68069	2910.85278	1124.65320	61.37175	2795.87402	1005.22662	73.14854	2984.12012	1039.08337	266.71454	2998.22729	851.64697	322.25732	2952.65820	859.58533	341.99719	3004.00928	777.14288	346.17557	2954.51172	782.09106	366.43729	2962.52539	718.46735	376.86124	2929.27197	695.82306	309.95450	3120.02612	489.57721	386.66153	3071.32813	492.26730	421.55823	3110.37598	410.46915	428.87024	3072.35767	416.04065	435.17789	2954.87476	1039.21399	-123.48729	2949.31128	878.00830	-198.41331	2901.18066	873.62097	-195.74797	2961.56763	800.94476	-220.98755	2907.40479	793.19916	-219.26962	2956.15649	716.24744	-247.08154	2907.71069	692.54388	-190.06699	3125.92285	501.51221	-212.81117	3084.14526	486.90079	-258.87891	3120.87769	412.57257	-252.69803	3084.20337	426.40695	-264.79449	2826.57788	304.24652	388.84186	2851.45337	299.90265	-240.15935	
